<?xml version="1.0" standalone="no"?>
<!DOCTYPE svg PUBLIC "-//W3C//DTD SVG 20010904//EN"
 "http://www.w3.org/TR/2001/REC-SVG-20010904/DTD/svg10.dtd">
<svg version="1.0" xmlns="http://www.w3.org/2000/svg"
 width="512.000000pt" height="512.000000pt" viewBox="0 0 512.000000 512.000000"
 preserveAspectRatio="xMidYMid meet">
<metadata>
Created by potrace 1.16, written by Peter Selinger 2001-2019
</metadata>
<g transform="translate(0.000000,512.000000) scale(0.100000,-0.100000)"
fill="#000000" stroke="none">
<path d="M0 2560 l0 -2560 2560 0 2560 0 0 2560 0 2560 -2560 0 -2560 0 0
-2560z m1481 1875 c16 -9 55 -38 85 -66 l55 -50 30 26 c63 52 136 24 312 -118
65 -52 175 -135 245 -184 148 -102 193 -141 233 -200 32 -46 49 -53 70 -26 35
42 154 69 177 41 5 -7 15 -44 21 -81 27 -155 80 -281 204 -477 142 -225 160
-269 182 -437 8 -65 31 -171 51 -236 19 -65 53 -203 75 -305 23 -110 47 -197
57 -211 10 -13 39 -36 64 -50 l46 -26 65 18 c103 27 146 22 347 -38 100 -30
185 -56 187 -59 3 -3 -12 -20 -32 -38 -54 -47 -167 -196 -214 -282 -95 -171
-179 -416 -300 -873 -17 -62 -32 -73 -106 -73 -77 0 -152 24 -380 124 -147 64
-170 77 -172 97 -2 13 12 94 31 179 l34 155 -26 39 c-34 50 -131 156 -143 156
-5 0 -9 -13 -9 -29 0 -46 -45 -211 -78 -283 -80 -177 -212 -298 -386 -355 -69
-22 -99 -26 -201 -26 -103 -1 -131 3 -197 25 -99 33 -163 74 -233 150 -108
116 -167 278 -168 458 -1 58 5 130 12 160 19 78 82 209 147 306 l56 84 -55
112 c-85 174 -131 325 -171 559 -8 46 -55 123 -137 224 -93 115 -103 141 -103
255 1 96 7 136 50 316 l24 100 -22 55 c-16 40 -22 84 -26 170 -5 131 10 207
53 257 23 27 24 34 18 108 -5 70 -3 83 16 114 15 25 21 52 21 93 0 32 6 72 14
90 24 59 113 84 177 52z"/>
<path d="M1364 4359 c-13 -15 -19 -36 -19 -76 l0 -56 51 -12 c82 -19 120 -49
212 -173 46 -64 146 -180 221 -260 157 -166 189 -209 240 -313 51 -104 156
-387 147 -397 -14 -13 -56 52 -148 233 -50 99 -105 200 -121 225 -17 25 -92
108 -167 185 -75 77 -169 186 -209 243 -106 149 -156 192 -222 192 -20 0 -21
-3 -15 -52 24 -187 26 -222 16 -232 -11 -11 -10 -13 -45 43 -30 49 -41 46 -56
-15 -16 -71 -8 -284 11 -284 21 0 64 78 71 127 11 81 29 103 85 103 25 0 58
-7 74 -15 60 -31 167 -191 298 -445 50 -96 118 -224 151 -285 33 -60 61 -113
61 -117 0 -38 -107 64 -175 167 -29 44 -73 128 -98 187 -27 66 -80 161 -136
246 -100 151 -122 178 -146 169 -25 -10 -18 -82 19 -219 44 -159 79 -250 204
-523 137 -301 166 -372 233 -578 62 -190 108 -283 208 -417 118 -159 266 -284
471 -401 78 -44 199 -153 246 -220 15 -22 31 -38 37 -36 5 1 23 39 41 82 66
168 171 320 323 470 l95 93 -50 27 c-62 34 -77 63 -93 180 -17 128 -60 285
-109 395 -38 86 -43 109 -56 232 -17 168 -37 223 -143 385 -42 65 -91 143
-109 174 -38 66 -85 207 -101 304 -20 115 -20 115 -42 115 -26 0 -69 -23 -93
-49 -18 -20 -18 -22 4 -83 12 -35 49 -114 81 -177 51 -98 84 -152 186 -308 28
-42 -11 -27 -72 28 -75 69 -175 222 -228 350 -99 235 -121 261 -392 464 -104
79 -226 170 -270 204 -82 63 -115 73 -150 48 -13 -10 -16 -21 -12 -38 9 -37
137 -169 310 -322 192 -169 246 -236 342 -417 86 -161 114 -205 186 -287 51
-58 53 -82 5 -63 -77 29 -136 102 -256 315 -136 243 -174 289 -383 462 -98 82
-161 144 -219 216 -141 177 -196 227 -251 227 -13 0 -32 -9 -43 -21z"/>
<path d="M1326 3603 c-3 -10 -24 -108 -47 -218 -33 -156 -42 -223 -43 -305 -1
-119 -1 -118 86 -228 96 -121 113 -166 153 -392 35 -193 171 -480 293 -615 56
-62 80 -116 88 -192 5 -51 2 -66 -25 -123 -36 -76 -40 -144 -12 -205 39 -84
111 -125 218 -125 118 1 238 57 348 165 62 59 115 145 115 184 0 15 -31 41
-114 96 -281 184 -473 455 -571 805 -14 52 -33 119 -41 148 -18 64 -28 65
-124 17 -38 -19 -72 -35 -75 -35 -12 0 -3 27 27 73 l32 49 -29 52 c-16 28 -55
92 -87 143 -32 51 -67 115 -78 143 -21 53 -27 140 -10 140 5 0 31 -46 58 -102
74 -156 197 -348 223 -348 17 0 9 28 -27 97 -68 131 -315 696 -329 756 -9 34
-22 43 -29 20z"/>
</g>
</svg>
